<svg width="21" height="24" viewBox="0 0 21 24" fill="none" xmlns="http://www.w3.org/2000/svg">
<path d="M10.9275 0.800049C10.0603 0.800049 9.73061 1.49414 9.79773 2.83881C9.84229 3.72522 10.1408 6.19644 8.88974 7.44871C7.72295 8.61609 7.3836 8.51241 6.05411 10.0199C4.72515 11.5268 3.61742 11.2168 2.06671 11.0836C0.118656 10.9165 0.782327 21.7318 2.15531 21.5443C3.12987 21.4111 5.34533 21.1452 5.69972 21.1452C6.05411 21.1452 8.48434 23.0287 10.6176 23.0512C14.0729 23.0872 15.9786 22.4748 15.9786 22.4748L16.9913 20.1766L17.3301 13.169L15.7122 9.79798C15.7122 9.79798 13.5413 10.1525 12.9212 9.17749C12.301 8.20243 13.4087 7.0055 13.4087 4.21302C13.4087 1.42054 11.3705 0.800049 10.9275 0.800049Z" fill="url(#paint0_linear_1560_35884)"/>
<path d="M16.0994 22.4545L15.9679 21.9748C15.5786 21.9334 15.0776 22.1107 14.3935 22.1053C11.1262 22.0801 8.00273 21.1415 6.6625 20.08C5.78459 19.3848 5.3996 18.4597 4.77942 18.7257C4.01426 19.0539 1.84337 19.5643 1.04492 18.5532C1.26829 20.2831 1.66671 21.6111 2.15534 21.5445C3.1299 21.4112 5.34536 21.1453 5.69975 21.1453C6.05414 21.1453 8.41672 22.9794 10.6177 23.0514C13.4651 23.1443 15.9942 22.6538 15.9942 22.6538L16.0994 22.4545Z" fill="url(#paint1_linear_1560_35884)"/>
<path d="M3.45043 11.7664C4.73535 12.1209 5.55152 11.5343 6.20821 10.736C6.8606 9.94305 7.42655 9.23982 9.06586 8.17612C10.7052 7.11242 10.4947 4.1867 10.3615 3.21164C10.2284 2.23658 10.317 0.800049 10.9275 0.800049C10.0603 0.800049 9.7306 1.49414 9.79772 2.83881C9.84229 3.72523 10.1408 6.19645 8.88974 7.44872C7.72295 8.61611 7.38359 8.51242 6.0541 10.0199C4.72515 11.5268 3.61742 11.2168 2.06671 11.0836C2.06725 11.4199 2.16551 11.4118 3.45043 11.7664Z" fill="url(#paint2_linear_1560_35884)"/>
<path d="M12.9212 9.17749C12.301 8.20244 13.4087 7.0055 13.4087 4.21302C13.4087 1.42054 11.371 0.800049 10.9275 0.800049C10.811 0.800049 10.7073 0.812942 10.6144 0.837654C12.4218 0.951008 13.5102 3.23152 12.8873 5.58294C12.3821 7.49115 12.1303 9.02116 12.9555 9.91832C13.4893 10.4991 14.5508 10.4002 15.7128 9.79799C15.7122 9.79799 13.5414 10.1526 12.9212 9.17749Z" fill="url(#paint3_linear_1560_35884)"/>
<path d="M13.043 10.1724C11.9799 10.5269 9.29459 11.3612 7.26062 13.2066C2.10589 17.8831 10.9065 18.4692 12.7241 22.4688C13.0715 23.2333 15.1023 18.4596 15.1023 18.4596L15.7589 17.354L13.8614 12.2982L13.043 10.1724Z" fill="url(#paint4_linear_1560_35884)"/>
<path d="M13.1993 10.5776C12.1361 10.9322 7.79272 13.7161 7.79272 15.0908C7.79272 19.0582 10.8007 17.1001 12.4266 21.7814C12.6516 22.4299 13.4468 22.9751 13.4468 22.9751C14.1057 22.4374 15.1028 18.4598 15.1028 18.4598L15.7595 17.3542L13.8619 12.2984L13.1993 10.5776Z" fill="url(#paint5_linear_1560_35884)"/>
<path d="M15.6532 22.7375L17.6883 20.4097L18.1366 10.6855L13.0426 10.1719C11.8731 10.8015 11.7378 11.6627 12.1722 13.0455C12.3547 13.6273 11.6121 13.7938 11.5643 15.4888C11.531 16.6637 12.3 16.6691 12.3 17.0182C12.3 17.3674 11.9171 17.3363 11.7898 18.3479C11.6084 19.7952 12.8197 19.8231 12.8197 20.1325C12.8197 20.442 12.1469 20.6257 12.1883 21.8054C12.2409 23.3016 9.46378 22.9992 7.58606 21.6378C6.815 21.0786 6.1422 21.0211 5.61707 21.1479C5.64982 21.1463 5.67774 21.1452 5.69868 21.1452C6.05307 21.1452 8.43337 23.0513 10.6166 23.0513C13.1698 23.0513 14.9353 22.9019 15.6532 22.7375Z" fill="url(#paint6_linear_1560_35884)"/>
<path d="M16.1214 10.8132C14.5487 10.8132 13.6847 12.3508 14.2829 13.5321C14.881 14.7135 13.1751 16.2773 13.3523 17.0472C13.5295 17.817 13.8399 19.7655 14.0831 20.0878C14.3269 20.4102 13.6842 21.1413 13.6842 21.1413L15.6779 21.3852L17.5384 20.5644L17.4718 14.9359L17.671 11.4117L16.1214 10.8132Z" fill="url(#paint7_linear_1560_35884)"/>
<path d="M6.05412 10.0198C5.1907 10.9986 4.42072 11.2108 3.56213 11.2028C3.80967 11.6025 3.98203 12.0392 3.96431 12.4663C3.9176 13.5859 4.16406 14.966 4.35253 13.5306C4.49589 12.4373 5.23688 11.0862 6.12822 9.93652C6.10406 9.96392 6.07989 9.99078 6.05412 10.0198Z" fill="url(#paint8_linear_1560_35884)"/>
<path d="M17.3129 9.75409C15.4534 9.68317 12.1104 9.57788 12.0357 11.5269C11.9821 12.9404 12.984 13.404 14.5336 13.4631C16.0833 13.5222 16.8581 13.5517 17.4998 13.5759C18.1414 13.6001 20.1604 13.5883 20.1802 11.8815C20.2049 9.74925 17.3129 9.75409 17.3129 9.75409Z" fill="url(#paint9_linear_1560_35884)"/>
<path d="M14.2544 16.7995C13.7561 16.785 12.2757 17.1583 12.1372 18.099C12.0282 18.8388 12.4057 19.7945 13.6938 20.0201C15.3256 20.3059 18.0447 20.4558 19.0606 20.0755C19.5144 19.9057 19.9101 19.4303 19.931 18.7099C19.952 17.9894 19.4172 17.0187 18.2547 16.9848C17.0922 16.9515 16.4865 16.9692 15.8239 16.8908C15.0271 16.7973 14.6528 16.8113 14.2544 16.7995Z" fill="url(#paint10_linear_1560_35884)"/>
<path d="M13.7352 20.0874C13.1703 20.0874 12.4723 20.5859 12.4723 21.417C12.4723 22.2481 12.6881 22.8632 13.9011 23.0959C15.1141 23.3285 17.0579 23.1292 17.7886 22.8966C18.3583 22.715 18.5694 22.182 18.5694 21.301C18.5694 20.4199 18.0217 20.2658 17.4235 20.2658C16.8254 20.2658 16.0994 20.3748 15.6849 20.3533C14.5272 20.2921 14.3001 20.0874 13.7352 20.0874Z" fill="url(#paint11_linear_1560_35884)"/>
<path d="M17.1545 10.1474C15.5307 10.0856 12.6113 9.99159 12.5528 11.5323C12.5104 12.6498 13.3867 13.0194 14.7398 13.0709C16.0929 13.1225 19.6529 13.1875 19.6647 11.8386C19.6792 10.1528 17.1545 10.1474 17.1545 10.1474Z" fill="url(#paint12_linear_1560_35884)"/>
<path d="M14.4042 17.1972C13.9704 17.1848 12.7558 17.288 12.6393 18.1868C12.5603 18.7949 12.8755 19.576 13.9972 19.7624C15.4185 19.9988 17.7854 20.1256 18.6698 19.8156C19.0644 19.677 19.4086 19.2886 19.4253 18.6982C19.4424 18.1078 18.8985 17.3841 17.8869 17.3546C16.8753 17.3251 16.3367 17.4191 15.7595 17.3535C15.0658 17.2756 14.7511 17.2069 14.4042 17.1972Z" fill="url(#paint13_linear_1560_35884)"/>
<path d="M13.9768 20.3904C13.4882 20.3904 12.8846 20.7917 12.8846 21.4611C12.8846 22.1305 13.0715 22.6258 14.1207 22.8127C15.1699 22.9997 16.8511 22.8396 17.4836 22.6521C17.976 22.506 18.1591 22.0767 18.1591 21.3671C18.1591 20.6574 17.685 20.5338 17.1674 20.5338C16.6497 20.5338 16.022 20.6219 15.6634 20.6042C14.6614 20.5553 14.4649 20.3904 13.9768 20.3904Z" fill="url(#paint14_linear_1560_35884)"/>
<path d="M13.6788 11.5331C13.7191 10.4715 14.5653 9.96275 15.6344 9.72852C13.928 9.76827 12.0905 10.0874 12.0352 11.5266C11.9815 12.94 12.9835 13.4037 14.5331 13.4628C14.7038 13.4692 14.8644 13.4757 15.0169 13.481C14.147 13.2264 13.6364 12.6521 13.6788 11.5331Z" fill="url(#paint15_linear_1560_35884)"/>
<path d="M13.8248 9.92041C12.832 10.1374 12.0706 10.607 12.0357 11.5262C11.9912 12.7011 12.6769 13.2195 13.7996 13.3952C11.5219 12.4857 12.3391 10.2454 13.8248 9.92041Z" fill="url(#paint16_linear_1560_35884)"/>
<path d="M11.1809 21.0883C10.9183 21.6916 9.66884 21.7297 8.38983 21.1726C7.11081 20.6161 6.28712 19.6754 6.54969 19.0716C6.81226 18.4683 8.06175 18.4301 9.34077 18.9872C10.6192 19.5443 11.4435 20.485 11.1809 21.0883Z" fill="url(#paint17_radial_1560_35884)"/>
<path d="M18.7057 11.818C18.6928 12.6335 17.6028 13.0203 16.4103 13.0928C15.4352 13.1519 14.3527 12.4616 14.3806 11.6649C14.4085 10.8682 14.5503 10.1623 16.5767 10.2326C17.7709 10.274 18.7181 11.0213 18.7057 11.818Z" fill="url(#paint18_radial_1560_35884)"/>
<path d="M18.9221 18.9867C18.9152 20.116 17.6743 19.8995 16.4817 19.9779C14.9696 20.0778 13.9672 19.6067 13.9666 18.8094C13.9655 18.0122 14.5406 17.4315 16.5687 17.4282C17.7634 17.4266 18.9307 17.5362 18.9221 18.9867Z" fill="url(#paint19_radial_1560_35884)"/>
<path d="M17.8289 21.834C17.823 22.7967 16.6954 22.9277 15.6269 22.9283C14.5584 22.9293 13.3985 22.3626 13.398 21.683C13.3975 21.0034 13.9113 20.5081 15.7246 20.5054C16.7926 20.5038 17.8364 20.5973 17.8289 21.834Z" fill="url(#paint20_radial_1560_35884)"/>
<path d="M13.5236 18.3281C13.6933 17.0425 14.6791 17.1177 15.8094 16.9845C14.5084 16.8873 13.9623 16.8733 13.9623 16.8733C13.8409 16.8615 13.7051 16.861 13.5639 16.8755C13.1413 16.9684 12.6623 17.1607 12.3777 17.5217C12.2811 17.6593 12.2027 17.8215 12.1511 18.0138C12.1458 18.0418 12.1404 18.0702 12.1372 18.0993C12.0454 18.8417 12.4057 19.7947 13.6938 20.0204C13.8796 20.0531 14.0799 20.0838 14.2898 20.1122C14.3902 20.1251 14.4998 20.1386 14.6174 20.1536C14.649 20.1574 14.6807 20.1611 14.7129 20.1649C14.002 19.8291 13.3985 19.2731 13.5236 18.3281Z" fill="url(#paint21_linear_1560_35884)"/>
<path d="M13.8383 16.8652C13.7507 16.8625 13.6579 16.8657 13.5628 16.8754C13.1365 16.9694 12.6532 17.1644 12.3702 17.5313C12.2768 17.6667 12.2016 17.8268 12.1512 18.0143C12.1458 18.0422 12.142 18.0702 12.1372 18.0992C12.0067 18.8303 12.3686 19.692 13.4941 19.9773C11.5739 18.9179 12.3933 16.8662 13.8383 16.8652Z" fill="url(#paint22_linear_1560_35884)"/>
<path d="M14.9562 20.2835C14.3887 20.2003 14.1556 20.0869 13.7357 20.0869C13.1709 20.0869 12.4728 20.5855 12.4728 21.4165C12.4728 21.7185 12.5018 21.9914 12.5958 22.2283C12.6914 22.4238 12.8304 22.607 13.0211 22.7617C13.2305 22.9079 13.5151 23.0212 13.9011 23.0954C14.1605 23.1453 14.4537 23.1749 14.7608 23.1894C14.168 22.845 13.1639 22.6597 13.3744 21.5068C13.6069 20.2336 14.3667 20.4055 14.9562 20.2835Z" fill="url(#paint23_linear_1560_35884)"/>
<path d="M13.7105 20.0879C13.1505 20.1024 12.4728 20.5982 12.4728 21.417C12.4728 22.1782 12.6549 22.7584 13.6182 23.0292C12.1136 22.0622 12.5963 20.4306 13.7105 20.0879Z" fill="url(#paint24_linear_1560_35884)"/>
<path d="M20.1802 11.8812C20.1824 11.6899 20.1609 11.5164 20.1206 11.3579C20.2704 12.0241 19.6771 12.6859 18.1044 13.0072C17.0621 13.2199 14.2942 13.4859 12.3788 12.7251C12.7923 13.2248 13.5532 13.4246 14.5336 13.4622C16.0833 13.5213 16.8581 13.5509 17.4997 13.575C18.1414 13.6003 20.1598 13.5879 20.1802 11.8812Z" fill="url(#paint25_linear_1560_35884)"/>
<path d="M19.9311 18.6648C19.9289 17.9492 19.3925 17.0182 18.2542 16.9855C17.0917 16.9521 16.486 16.9699 15.8234 16.8914C15.0271 16.7974 14.6528 16.8114 14.2544 16.8001C13.9532 16.7915 13.21 16.8823 12.7048 17.1966C13.2729 17.3937 14.1986 17.6903 15.5012 17.607C18.6225 17.4061 19.5106 17.7838 19.9311 18.6648Z" fill="url(#paint26_linear_1560_35884)"/>
<path d="M13.5849 13.5752C12.9207 13.5618 11.8656 13.9529 11.8382 15.333C11.8108 16.7126 13.0173 17.0413 13.5489 17.0521C14.0805 17.0628 15.9389 17.1896 18.2311 17.2353C20.5233 17.281 20.8305 16.0502 20.8434 15.4055C20.8562 14.7603 20.4476 13.594 19.0687 13.5661C15.0819 13.486 13.5849 13.5752 13.5849 13.5752Z" fill="url(#paint27_linear_1560_35884)"/>
<path d="M13.9414 13.9753C13.3636 13.964 12.4476 14.2638 12.4267 15.328C12.4052 16.3928 13.4549 16.6485 13.9167 16.6577C14.379 16.6668 15.9947 16.7683 17.9873 16.8081C19.9799 16.8478 20.2447 15.8991 20.2543 15.4011C20.2645 14.9036 20.1958 14.0033 18.9968 13.9791C15.5318 13.9103 13.9414 13.9753 13.9414 13.9753Z" fill="url(#paint28_linear_1560_35884)"/>
<path d="M13.2638 15.1998C13.3303 13.7832 14.3189 13.7789 15.4347 13.5344C14.1299 13.5425 13.5849 13.5747 13.5849 13.5747C12.9207 13.5613 11.8656 13.9524 11.8382 15.3325C11.8108 16.7121 13.0173 17.0409 13.5489 17.0516C13.7406 17.0554 14.1052 17.0742 14.5992 17.0989C13.8625 16.7954 13.2149 16.242 13.2638 15.1998Z" fill="url(#paint29_linear_1560_35884)"/>
<path d="M19.676 15.3465C19.7222 16.4747 18.4695 16.6869 17.2759 16.7438C16.0822 16.8008 14.7554 16.1975 14.7173 15.4013C14.6792 14.6051 15.2263 13.9981 17.2517 13.8998C18.4453 13.8423 19.617 13.8971 19.676 15.3465Z" fill="url(#paint30_radial_1560_35884)"/>
<path d="M13.4608 13.5774C12.7971 13.6128 11.8639 14.0362 11.8381 15.3325C11.8118 16.6444 12.9007 17.0059 13.4651 17.0473C11.2813 16.1657 11.9971 13.7074 13.4608 13.5774Z" fill="url(#paint31_linear_1560_35884)"/>
<path d="M20.8396 15.2659C20.5518 17.3073 15.157 16.9334 12.2419 16.495C12.6355 16.9167 13.2208 17.0446 13.5489 17.0516C14.0805 17.0623 15.9388 17.1891 18.2311 17.2348C20.5233 17.2804 20.8305 16.0497 20.8433 15.405C20.8439 15.361 20.8428 15.3142 20.8396 15.2659Z" fill="url(#paint32_linear_1560_35884)"/>
<path d="M18.1371 19.8118C17.0922 19.858 14.3274 20.2018 12.3117 19.1214C12.5367 19.5394 12.9722 19.8945 13.6933 20.0207C15.3251 20.3065 18.0442 20.4564 19.0601 20.0761C19.5138 19.9063 19.9096 19.4309 19.9305 18.7104C19.8634 19.3369 19.2668 19.7618 18.1371 19.8118Z" fill="url(#paint33_linear_1560_35884)"/>
<path d="M18.4893 22.0803C17.8047 22.6014 16.6213 22.9093 14.9138 22.6208C13.8592 22.4424 13.1365 22.3817 12.6613 22.3688C12.8513 22.7126 13.2181 22.9651 13.9011 23.0962C15.114 23.3288 17.0578 23.1295 17.7886 22.8969C18.1639 22.7766 18.383 22.5036 18.4893 22.0803Z" fill="url(#paint34_linear_1560_35884)"/>
<path d="M12.6967 20.6692C13.9618 20.2083 14.582 20.8922 15.9356 20.8922C17.3413 20.8922 18.0115 20.3243 18.5108 20.8642C18.354 20.3662 17.9051 20.2658 17.4235 20.2658C16.8253 20.2658 16.0994 20.3748 15.6843 20.3533C14.5266 20.2926 14.3001 20.0874 13.7352 20.0874C13.3695 20.0874 12.9485 20.2964 12.6967 20.6692Z" fill="url(#paint35_linear_1560_35884)"/>
<path d="M2.15587 21.5445C3.13043 21.4113 5.34589 21.1453 5.70028 21.1453C2.48716 18.8476 3.91599 13.9605 5.10104 11.4888C5.2675 11.1417 5.37005 10.857 5.42536 10.6152C4.35629 11.4307 3.36723 11.1954 2.06673 11.0837C0.118675 10.9166 0.782883 21.732 2.15587 21.5445Z" fill="url(#paint36_linear_1560_35884)"/>
<path d="M4.18177 19.324C3.8494 18.8808 4.1372 19.8339 4.40353 20.521C4.62959 21.1055 2.89577 20.76 1.56897 20.9035C1.7424 21.3316 1.94054 21.5739 2.15586 21.5444C3.13042 21.4111 5.34588 21.1452 5.70027 21.1452C5.20037 20.7203 4.51361 19.7672 4.18177 19.324Z" fill="url(#paint37_linear_1560_35884)"/>
<path d="M5.69969 21.1459C5.42423 20.9111 5.09186 20.5157 4.79278 20.1338C4.79278 20.1338 3.17977 20.9595 1.45026 20.5711C1.64947 21.2028 1.88895 21.581 2.15527 21.5445C3.13038 21.4118 5.3453 21.1459 5.69969 21.1459Z" fill="url(#paint38_linear_1560_35884)"/>
<path d="M11.8098 4.96162C11.1783 5.09807 10.6666 4.22562 10.3778 3.20758C10.1415 2.37489 10.4626 1.31441 11.0828 1.19515C11.7029 1.07535 12.2753 1.06998 12.6174 2.83475C12.8182 3.87428 12.4273 4.82838 11.8098 4.96162Z" fill="url(#paint39_radial_1560_35884)"/>
<path d="M13.7105 20.0879C13.3631 20.1244 13.0484 20.3108 12.832 20.5671C12.6124 20.8255 12.5098 21.1628 12.5324 21.5018C12.5345 21.843 12.5861 22.1916 12.7794 22.4678C12.9711 22.7466 13.2933 22.9126 13.6181 23.0292C13.2831 22.9534 12.9324 22.8148 12.708 22.5209C12.4803 22.2303 12.4277 21.8516 12.4164 21.504C12.4014 21.1483 12.5147 20.7701 12.7654 20.508C13.0087 20.2431 13.3598 20.0809 13.7105 20.0879Z" fill="#804B24"/>
<path d="M13.1532 16.9956C12.9244 17.095 12.7134 17.2309 12.5389 17.4001C12.3612 17.5672 12.2667 17.7961 12.2017 18.0281L12.2022 18.0244C12.1185 18.4477 12.1893 18.8984 12.4379 19.2503C12.6806 19.607 13.0748 19.8402 13.4936 19.9767C13.0624 19.8934 12.628 19.6833 12.3553 19.3089C12.2205 19.1246 12.127 18.9092 12.0819 18.6841C12.0363 18.459 12.0572 18.2237 12.0991 18.004L12.1002 18.0002C12.1684 17.7563 12.2897 17.5119 12.49 17.347C12.6817 17.1767 12.9169 17.0719 13.1532 16.9956Z" fill="#804B24"/>
<path d="M13.4608 13.5769C13.05 13.6236 12.6527 13.7945 12.3697 14.0819C12.0857 14.3693 11.9321 14.7652 11.9074 15.1687C11.866 15.5705 11.931 15.9901 12.1608 16.3237C12.3874 16.6584 12.7579 16.883 13.1542 16.999C12.7483 16.9249 12.3445 16.7245 12.0878 16.3758C11.8258 16.0298 11.7565 15.577 11.7914 15.159C11.8258 14.7389 11.9906 14.3102 12.3074 14.0185C12.621 13.7236 13.0468 13.5812 13.4608 13.5769Z" fill="#804B24"/>
<path d="M13.8249 9.92041C13.3856 10.0407 12.9491 10.2068 12.6028 10.492C12.2538 10.7757 12.0647 11.2135 12.0937 11.6621C12.0878 12.1075 12.2334 12.5619 12.5716 12.8569C12.9051 13.1556 13.355 13.3006 13.7991 13.3952C13.3486 13.342 12.8798 13.2292 12.5131 12.924C12.1378 12.6232 11.9783 12.1246 11.9778 11.6632C11.9536 11.1942 12.1646 10.7031 12.5469 10.4227C12.9217 10.1353 13.3765 9.99992 13.8249 9.92041Z" fill="#804B24"/>
<path d="M12.3123 19.1208C12.6146 19.6446 13.1955 19.9159 13.7695 19.9933C14.3537 20.0835 14.9422 20.1453 15.5323 20.1829C16.1214 20.2329 16.7126 20.264 17.3037 20.2619C17.5991 20.2581 17.8949 20.2506 18.1886 20.2216C18.4823 20.198 18.7787 20.1679 19.0612 20.0749C18.5022 20.285 17.896 20.3183 17.3054 20.3393C16.7115 20.3543 16.1171 20.3376 15.5243 20.299C14.9326 20.2479 14.3425 20.1733 13.7572 20.0696C13.4629 20.0212 13.1698 19.9299 12.912 19.773C12.6554 19.6146 12.4449 19.3862 12.3123 19.1208Z" fill="#804B24"/>
<path d="M12.2419 16.4949C12.4685 16.7205 12.7601 16.8693 13.0646 16.9451C13.3674 17.0359 13.6858 17.016 14.0058 17.0305L15.9168 17.0858L17.8268 17.1798C18.4604 17.2185 19.1052 17.2271 19.7125 17.0192C19.1208 17.2717 18.4561 17.2921 17.8252 17.2572L15.9141 17.2019L14.0042 17.1073C13.6901 17.0858 13.3599 17.1009 13.049 16.9993C12.7418 16.9032 12.4546 16.7339 12.2419 16.4949Z" fill="#804B24"/>
<path d="M19.0687 13.5656C18.6118 13.5667 18.1543 13.5796 17.6973 13.5753L16.3265 13.578L14.9562 13.5968C14.4998 13.5994 14.0423 13.6021 13.5875 13.6204H13.5838C13.1343 13.6129 12.6688 13.7665 12.345 14.0883C12.0148 14.4069 11.8591 14.8705 11.8381 15.3325C11.8419 15.101 11.8666 14.8673 11.9375 14.6433C12.0094 14.4198 12.1324 14.2108 12.2994 14.0427C12.6323 13.7004 13.1123 13.5307 13.5859 13.5296H13.5821C14.4976 13.4743 15.4121 13.4737 16.3265 13.4882C17.2415 13.4985 18.1554 13.5156 19.0687 13.5656Z" fill="#804B24"/>
<defs>
<linearGradient id="paint0_linear_1560_35884" x1="15.7842" y1="11.7413" x2="9.11934" y2="12.0087" gradientUnits="userSpaceOnUse">
<stop offset="0.00132565" stop-color="#FFCB4B"/>
<stop offset="1" stop-color="#FFD748"/>
</linearGradient>
<linearGradient id="paint1_linear_1560_35884" x1="8.5904" y1="20.9833" x2="8.45639" y2="17.4785" gradientUnits="userSpaceOnUse">
<stop offset="0.00132565" stop-color="#FFCB4B"/>
<stop offset="1" stop-color="#FFD748"/>
</linearGradient>
<linearGradient id="paint2_linear_1560_35884" x1="7.73598" y1="7.78931" x2="12.7568" y2="14.9677" gradientUnits="userSpaceOnUse">
<stop offset="0.00132565" stop-color="#FFCB4B"/>
<stop offset="1" stop-color="#FFD748"/>
</linearGradient>
<linearGradient id="paint3_linear_1560_35884" x1="4.1026" y1="4.92926" x2="16.9618" y2="5.89238" gradientUnits="userSpaceOnUse">
<stop offset="0.3118" stop-color="#FFBC47" stop-opacity="0"/>
<stop offset="1" stop-color="#FF8900"/>
</linearGradient>
<linearGradient id="paint4_linear_1560_35884" x1="3.85772" y1="16.3622" x2="20.744" y2="16.3622" gradientUnits="userSpaceOnUse">
<stop stop-color="#FFBC47" stop-opacity="0"/>
<stop offset="1" stop-color="#FFA754"/>
</linearGradient>
<linearGradient id="paint5_linear_1560_35884" x1="1.1349" y1="16.3879" x2="34.4955" y2="17.4506" gradientUnits="userSpaceOnUse">
<stop stop-color="#FFBC47" stop-opacity="0"/>
<stop offset="1" stop-color="#C86F34"/>
</linearGradient>
<linearGradient id="paint6_linear_1560_35884" x1="6.43567" y1="20.7472" x2="11.9527" y2="17.7576" gradientUnits="userSpaceOnUse">
<stop stop-color="#FFBC47" stop-opacity="0"/>
<stop offset="1" stop-color="#C86F34"/>
</linearGradient>
<linearGradient id="paint7_linear_1560_35884" x1="12.7556" y1="16.5024" x2="17.3562" y2="15.8983" gradientUnits="userSpaceOnUse">
<stop stop-color="#643800" stop-opacity="0"/>
<stop offset="1" stop-color="#643800"/>
</linearGradient>
<linearGradient id="paint8_linear_1560_35884" x1="4.59082" y1="6.34595" x2="5.58866" y2="22.8684" gradientUnits="userSpaceOnUse">
<stop stop-color="#FFBC47" stop-opacity="0"/>
<stop offset="1" stop-color="#FFA754"/>
</linearGradient>
<linearGradient id="paint9_linear_1560_35884" x1="19.865" y1="11.6522" x2="13.3368" y2="11.6522" gradientUnits="userSpaceOnUse">
<stop offset="0.00132565" stop-color="#FFBC47"/>
<stop offset="1" stop-color="#FFD748"/>
</linearGradient>
<linearGradient id="paint10_linear_1560_35884" x1="19.8649" y1="18.5513" x2="13.3331" y2="18.5513" gradientUnits="userSpaceOnUse">
<stop offset="0.00132565" stop-color="#FFBC47"/>
<stop offset="1" stop-color="#FFD748"/>
</linearGradient>
<linearGradient id="paint11_linear_1560_35884" x1="19.865" y1="21.6434" x2="13.3368" y2="21.6434" gradientUnits="userSpaceOnUse">
<stop offset="0.00132565" stop-color="#FFBC47"/>
<stop offset="1" stop-color="#FFD748"/>
</linearGradient>
<linearGradient id="paint12_linear_1560_35884" x1="12.4566" y1="11.6846" x2="15.8569" y2="11.6072" gradientUnits="userSpaceOnUse">
<stop offset="0.00132565" stop-color="#FFCB4B"/>
<stop offset="1" stop-color="#FFD748"/>
</linearGradient>
<linearGradient id="paint13_linear_1560_35884" x1="18.403" y1="18.5978" x2="14.9369" y2="18.5978" gradientUnits="userSpaceOnUse">
<stop offset="0.00132565" stop-color="#FFCB4B"/>
<stop offset="1" stop-color="#FFD748"/>
</linearGradient>
<linearGradient id="paint14_linear_1560_35884" x1="18.403" y1="21.6434" x2="14.9369" y2="21.6434" gradientUnits="userSpaceOnUse">
<stop offset="0.00132565" stop-color="#FFCB4B"/>
<stop offset="1" stop-color="#FFD748"/>
</linearGradient>
<linearGradient id="paint15_linear_1560_35884" x1="14.172" y1="11.6047" x2="12.3226" y2="11.6047" gradientUnits="userSpaceOnUse">
<stop offset="0.00132565" stop-color="#FBA23B" stop-opacity="0"/>
<stop offset="1" stop-color="#FBA23B"/>
</linearGradient>
<linearGradient id="paint16_linear_1560_35884" x1="13.8397" y1="11.6579" x2="11.7129" y2="11.6579" gradientUnits="userSpaceOnUse">
<stop offset="0.00132565" stop-color="#FFBC47"/>
<stop offset="1" stop-color="#E89043"/>
</linearGradient>
<radialGradient id="paint17_radial_1560_35884" cx="0" cy="0" r="1" gradientUnits="userSpaceOnUse" gradientTransform="translate(8.69111 19.6151) rotate(23.5251) scale(2.59633 1.20544)">
<stop stop-color="#FBE07A"/>
<stop offset="1" stop-color="#FFD748" stop-opacity="0"/>
</radialGradient>
<radialGradient id="paint18_radial_1560_35884" cx="0" cy="0" r="1" gradientUnits="userSpaceOnUse" gradientTransform="translate(16.5463 11.6684) rotate(2.02718) scale(2.22147 1.45802)">
<stop stop-color="#FBE07A"/>
<stop offset="1" stop-color="#FFD748"/>
</radialGradient>
<radialGradient id="paint19_radial_1560_35884" cx="0" cy="0" r="1" gradientUnits="userSpaceOnUse" gradientTransform="translate(16.4388 18.827) rotate(-0.0544055) scale(2.38572 1.28608)">
<stop stop-color="#FBE07A"/>
<stop offset="1" stop-color="#FFD748" stop-opacity="0"/>
</radialGradient>
<radialGradient id="paint20_radial_1560_35884" cx="0" cy="0" r="1" gradientUnits="userSpaceOnUse" gradientTransform="translate(15.6134 21.7184) rotate(-0.0539601) scale(2.18432 1.36711)">
<stop stop-color="#FBE07A"/>
<stop offset="1" stop-color="#FFD748" stop-opacity="0"/>
</radialGradient>
<linearGradient id="paint21_linear_1560_35884" x1="14.3935" y1="18.5146" x2="11.7131" y2="18.5146" gradientUnits="userSpaceOnUse">
<stop offset="0.00132565" stop-color="#FBA23B" stop-opacity="0"/>
<stop offset="1" stop-color="#FBA23B"/>
</linearGradient>
<linearGradient id="paint22_linear_1560_35884" x1="13.8238" y1="18.4208" x2="12.38" y2="18.4208" gradientUnits="userSpaceOnUse">
<stop offset="0.00132565" stop-color="#FFBC47"/>
<stop offset="1" stop-color="#FBA23B"/>
</linearGradient>
<linearGradient id="paint23_linear_1560_35884" x1="14.2972" y1="21.661" x2="11.1626" y2="21.0854" gradientUnits="userSpaceOnUse">
<stop offset="0.00132565" stop-color="#FBA23B" stop-opacity="0"/>
<stop offset="1" stop-color="#FBA23B"/>
</linearGradient>
<linearGradient id="paint24_linear_1560_35884" x1="13.9731" y1="21.5585" x2="12.6481" y2="21.5585" gradientUnits="userSpaceOnUse">
<stop offset="0.00132565" stop-color="#FFBC47"/>
<stop offset="1" stop-color="#FBA23B"/>
</linearGradient>
<linearGradient id="paint25_linear_1560_35884" x1="16.0851" y1="11.2409" x2="16.9277" y2="15.3187" gradientUnits="userSpaceOnUse">
<stop stop-color="#FFBC47" stop-opacity="0"/>
<stop offset="1" stop-color="#C86F34"/>
</linearGradient>
<linearGradient id="paint26_linear_1560_35884" x1="16.7252" y1="19.2979" x2="15.8059" y2="15.981" gradientUnits="userSpaceOnUse">
<stop stop-color="#FFBC47" stop-opacity="0"/>
<stop offset="1" stop-color="#C86F34"/>
</linearGradient>
<linearGradient id="paint27_linear_1560_35884" x1="19.865" y1="15.3843" x2="13.3368" y2="15.3843" gradientUnits="userSpaceOnUse">
<stop offset="0.00132565" stop-color="#FFBC47"/>
<stop offset="1" stop-color="#FFD748"/>
</linearGradient>
<linearGradient id="paint28_linear_1560_35884" x1="13.0734" y1="15.202" x2="18.0742" y2="15.3846" gradientUnits="userSpaceOnUse">
<stop offset="0.00132565" stop-color="#FFCB4B"/>
<stop offset="0.7382" stop-color="#FFD748"/>
<stop offset="1" stop-color="#FFCB4B"/>
</linearGradient>
<linearGradient id="paint29_linear_1560_35884" x1="15.0249" y1="15.3168" x2="11.2887" y2="15.3168" gradientUnits="userSpaceOnUse">
<stop offset="0.00132565" stop-color="#FBA23B" stop-opacity="0"/>
<stop offset="1" stop-color="#FBA23B"/>
</linearGradient>
<radialGradient id="paint30_radial_1560_35884" cx="0" cy="0" r="1" gradientUnits="userSpaceOnUse" gradientTransform="translate(17.1942 15.3243) rotate(-2.73606) scale(2.44282 1.60338)">
<stop stop-color="#FBE07A"/>
<stop offset="1" stop-color="#FFD748" stop-opacity="0"/>
</radialGradient>
<linearGradient id="paint31_linear_1560_35884" x1="13.2882" y1="15.3123" x2="12.1086" y2="15.3123" gradientUnits="userSpaceOnUse">
<stop offset="0.00132565" stop-color="#FFBC47"/>
<stop offset="1" stop-color="#FBA23B"/>
</linearGradient>
<linearGradient id="paint32_linear_1560_35884" x1="16.3949" y1="14.9526" x2="17.1045" y2="19.4627" gradientUnits="userSpaceOnUse">
<stop stop-color="#FFBC47" stop-opacity="0"/>
<stop offset="1" stop-color="#C86F34"/>
</linearGradient>
<linearGradient id="paint33_linear_1560_35884" x1="15.9032" y1="18.4416" x2="17.7211" y2="22.3859" gradientUnits="userSpaceOnUse">
<stop stop-color="#FFBC47" stop-opacity="0"/>
<stop offset="1" stop-color="#C86F34"/>
</linearGradient>
<linearGradient id="paint34_linear_1560_35884" x1="15.5411" y1="21.9018" x2="15.8072" y2="24.3951" gradientUnits="userSpaceOnUse">
<stop stop-color="#FFBC47" stop-opacity="0"/>
<stop offset="1" stop-color="#C86F34"/>
</linearGradient>
<linearGradient id="paint35_linear_1560_35884" x1="15.6039" y1="21.5237" x2="15.6039" y2="19.7201" gradientUnits="userSpaceOnUse">
<stop stop-color="#FFBC47" stop-opacity="0"/>
<stop offset="1" stop-color="#C86F34"/>
</linearGradient>
<linearGradient id="paint36_linear_1560_35884" x1="3.42738" y1="16.5446" x2="-2.22529" y2="25.0858" gradientUnits="userSpaceOnUse">
<stop stop-color="#C86F34" stop-opacity="0"/>
<stop offset="1" stop-color="#C86F34"/>
</linearGradient>
<linearGradient id="paint37_linear_1560_35884" x1="3.05419" y1="18.4337" x2="3.98547" y2="22.5891" gradientUnits="userSpaceOnUse">
<stop stop-color="#FFBC47" stop-opacity="0"/>
<stop offset="1" stop-color="#C86F34"/>
</linearGradient>
<linearGradient id="paint38_linear_1560_35884" x1="3.61807" y1="19.2134" x2="3.48503" y2="24.2998" gradientUnits="userSpaceOnUse">
<stop stop-color="#FFBC47" stop-opacity="0"/>
<stop offset="1" stop-color="#C86F34"/>
</linearGradient>
<radialGradient id="paint39_radial_1560_35884" cx="0" cy="0" r="1" gradientUnits="userSpaceOnUse" gradientTransform="translate(11.5058 3.06715) rotate(79.0714) scale(2.3423 1.37406)">
<stop stop-color="#FBE07A"/>
<stop offset="1" stop-color="#FFD748" stop-opacity="0"/>
</radialGradient>
</defs>
</svg>
