<svg width="16" height="16" viewBox="0 0 16 16" fill="none" xmlns="http://www.w3.org/2000/svg">
<g clip-path="url(#clip0_9798_72524)">
<path d="M13.1427 10.8569H14.2856C14.5887 10.8569 14.8794 10.7365 15.0937 10.5222C15.308 10.3079 15.4284 10.0172 15.4284 9.71408V7.99979C15.4284 7.69669 15.308 7.406 15.0937 7.19167C14.8794 6.97734 14.5887 6.85693 14.2856 6.85693H13.1427C12.9912 6.85693 12.8458 6.91714 12.7387 7.0243C12.6315 7.13146 12.5713 7.27681 12.5713 7.42836V10.2855C12.5713 10.4371 12.6315 10.5824 12.7387 10.6896C12.8458 10.7967 12.9912 10.8569 13.1427 10.8569ZM13.1427 10.8569V11.7141C13.1427 12.3203 12.9019 12.9017 12.4732 13.3303C12.0446 13.759 11.4632 13.9998 10.857 13.9998M1.71415 6.85693H2.857C3.00856 6.85693 3.1539 6.91714 3.26106 7.0243C3.36823 7.13146 3.42843 7.27681 3.42843 7.42836V10.2855C3.42843 10.4371 3.36823 10.5824 3.26106 10.6896C3.1539 10.7967 3.00856 10.8569 2.857 10.8569H1.71415C1.41104 10.8569 1.12035 10.7365 0.906024 10.5222C0.691697 10.3079 0.571289 10.0172 0.571289 9.71408V7.99979C0.571289 7.69669 0.691697 7.406 0.906024 7.19167C1.12035 6.97734 1.41104 6.85693 1.71415 6.85693Z" stroke="#2F2F37" stroke-linecap="round" stroke-linejoin="round"/>
<path d="M2.85693 6.857V5.71415C2.85693 4.35018 3.39877 3.04207 4.36324 2.0776C5.32771 1.11312 6.63582 0.571289 7.99979 0.571289C9.36376 0.571289 10.6719 1.11312 11.6363 2.0776C12.6008 3.04207 13.1426 4.35018 13.1426 5.71415V6.857M6.2855 4.57129V6.28557M9.71408 4.57129V6.28557M6.2855 8.57129C6.2855 10.0913 9.71408 10.0913 9.71408 8.57129M9.42836 12.5713C9.80724 12.5713 10.1706 12.7218 10.4385 12.9897C10.7064 13.2576 10.8569 13.621 10.8569 13.9999C10.8569 14.3787 10.7064 14.7421 10.4385 15.01C10.1706 15.2779 9.80724 15.4284 9.42836 15.4284H7.71408C7.3352 15.4284 6.97183 15.2779 6.70392 15.01C6.43601 14.7421 6.2855 14.3787 6.2855 13.9999C6.2855 13.621 6.43601 13.2576 6.70392 12.9897C6.97183 12.7218 7.3352 12.5713 7.71408 12.5713H9.42836Z" stroke="#2F2F37" stroke-linecap="round" stroke-linejoin="round"/>
</g>
<defs>
<clipPath id="clip0_9798_72524">
<rect width="16" height="16" fill="white"/>
</clipPath>
</defs>
</svg>
