<svg width="16" height="16" viewBox="0 0 16 16" fill="none" xmlns="http://www.w3.org/2000/svg">
<path fill-rule="evenodd" clip-rule="evenodd" d="M12.354 1.64598C12.3075 1.59942 12.2524 1.56247 12.1916 1.53727C12.1309 1.51206 12.0658 1.49908 12 1.49908C11.9342 1.49908 11.8691 1.51206 11.8084 1.53727C11.7476 1.56247 11.6924 1.59942 11.646 1.64598L5.64599 7.64598C5.59943 7.69242 5.56249 7.7476 5.53728 7.80834C5.51207 7.86909 5.4991 7.93421 5.4991 7.99998C5.4991 8.06574 5.51207 8.13087 5.53728 8.19161C5.56249 8.25236 5.59943 8.30753 5.64599 8.35398L11.646 14.354C11.7399 14.4479 11.8672 14.5006 12 14.5006C12.1328 14.5006 12.2601 14.4479 12.354 14.354C12.4479 14.2601 12.5006 14.1328 12.5006 14C12.5006 13.8672 12.4479 13.7399 12.354 13.646L6.70699 7.99998L12.354 2.35398C12.4006 2.30753 12.4375 2.25236 12.4627 2.19161C12.4879 2.13087 12.5009 2.06575 12.5009 1.99998C12.5009 1.93421 12.4879 1.86909 12.4627 1.80834C12.4375 1.7476 12.4006 1.69242 12.354 1.64598Z" fill="#2F2F37"/>
<path fill-rule="evenodd" clip-rule="evenodd" d="M8.35399 1.64598C8.30755 1.59942 8.25237 1.56247 8.19163 1.53727C8.13088 1.51206 8.06576 1.49908 7.99999 1.49908C7.93422 1.49908 7.8691 1.51206 7.80836 1.53727C7.74761 1.56247 7.69244 1.59942 7.64599 1.64598L1.64599 7.64598C1.59943 7.69242 1.56249 7.7476 1.53728 7.80834C1.51207 7.86909 1.4991 7.93421 1.4991 7.99998C1.4991 8.06574 1.51207 8.13087 1.53728 8.19161C1.56249 8.25236 1.59943 8.30753 1.64599 8.35398L7.64599 14.354C7.73988 14.4479 7.86722 14.5006 7.99999 14.5006C8.13277 14.5006 8.2601 14.4479 8.35399 14.354C8.44788 14.2601 8.50062 14.1328 8.50062 14C8.50062 13.8672 8.44788 13.7399 8.35399 13.646L2.70699 7.99998L8.35399 2.35398C8.40055 2.30753 8.4375 2.25236 8.4627 2.19161C8.48791 2.13087 8.50089 2.06575 8.50089 1.99998C8.50089 1.93421 8.48791 1.86909 8.4627 1.80834C8.4375 1.7476 8.40055 1.69242 8.35399 1.64598Z" fill="#2F2F37"/>
</svg>
