<svg width="18" height="24" viewBox="0 0 18 24" fill="none" xmlns="http://www.w3.org/2000/svg">
<path d="M16.6002 8.07159L16.6746 8.8861C16.704 9.20778 17.0379 9.40784 17.3354 9.282C17.7061 9.12518 18.0924 9.46977 17.9788 9.85593L17.1087 12.813C17.0572 12.9882 17.1711 13.1688 17.3514 13.1978C17.615 13.2401 17.6989 13.578 17.4858 13.7389L15.0602 15.57C14.9569 15.6479 14.9629 15.8049 15.0718 15.8748C15.2065 15.9612 15.1762 16.1661 15.0223 16.2099L11.3316 17.2603C11.1684 17.3068 11.0828 17.4856 11.1489 17.6419C11.2362 17.8483 11.0598 18.0692 10.8392 18.0298L6.92789 17.331C6.73948 17.2974 6.5714 17.4538 6.59146 17.6441C6.62284 17.942 6.23468 18.0833 6.06724 17.8349L4.75154 15.8835C4.5824 15.6327 4.29553 15.4872 3.99322 15.4989L3.88038 15.5033C3.18012 15.5305 2.641 14.8919 2.78519 14.2061L3.58639 10.3955C3.5995 10.3332 3.60073 10.2689 3.59002 10.2061L3.0552 7.07091C3.02781 6.91029 3.25337 6.84431 3.31685 6.99437C3.36886 7.11733 3.54802 7.10114 3.57714 6.97084L3.69943 6.42359C3.76667 6.12273 4.18038 6.08533 4.30048 6.36925L5.19938 8.49434C5.28314 8.69235 5.57615 8.64568 5.59425 8.43145C5.61381 8.20006 5.94174 8.17295 5.99903 8.39799L6.53371 10.4983C6.6343 10.8934 7.10472 11.0587 7.43036 10.8134L8.01516 10.3728C8.2703 10.1806 8.63799 10.3343 8.68036 10.6509C8.7234 10.9726 9.10084 11.1244 9.35459 10.9221L10.7545 9.80601C10.9331 9.6636 11.1961 9.79894 11.1841 10.0271C11.1722 10.2535 11.4317 10.3893 11.6109 10.2504L14.0004 8.39818C14.1477 8.28398 14.3601 8.40169 14.3414 8.58714C14.3203 8.79613 14.5832 8.90539 14.7164 8.74298L15.5354 7.74461C15.8768 7.32836 16.5512 7.53545 16.6002 8.07159Z" fill="#2F2F37"/>
<path fill-rule="evenodd" clip-rule="evenodd" d="M8.64517 2.15214L8.98156 2.13477C12.6216 2.15358 14.6392 5.21101 14.5195 8.80044L14.5019 10.0989C15.2001 10.199 16.1529 10.6068 15.8269 12.1079C15.6043 13.1329 15.0234 13.4935 14.4549 13.5751L14.3403 22.0384C13.1443 22.7886 11.7679 23.2128 10.3513 23.2679C8.93475 23.3229 7.52869 23.0068 6.27648 22.3518L6.18247 22.3026C6.17292 21.2922 6.1979 20.3729 6.1979 20.3729C6.1979 20.3729 2.45207 18.5805 2.45207 16.5859C2.34189 14.9269 2.39698 11.4931 2.48365 8.38569C2.52751 6.7736 3.18592 5.23695 4.32776 4.08176C5.4696 2.92658 7.01107 2.23763 8.64517 2.15214Z" fill="white"/>
<path d="M8.98156 2.13477L8.98414 1.63477L8.96995 1.6347L8.95577 1.63543L8.98156 2.13477ZM8.64517 2.15214L8.61938 1.6528L8.61904 1.65282L8.64517 2.15214ZM14.5195 8.80044L14.0197 8.78377L14.0196 8.79367L14.5195 8.80044ZM14.5019 10.0989L14.002 10.0921L13.996 10.5314L14.4309 10.5938L14.5019 10.0989ZM15.8269 12.1079L15.3383 12.0018L15.8269 12.1079ZM14.4549 13.5751L14.3839 13.0801L13.9607 13.1408L13.9549 13.5683L14.4549 13.5751ZM14.3403 22.0384L14.606 22.462L14.8366 22.3174L14.8403 22.0452L14.3403 22.0384ZM6.27648 22.3518L6.04457 22.7948L6.04473 22.7949L6.27648 22.3518ZM6.18247 22.3026L5.68249 22.3073L5.68532 22.6067L5.95056 22.7456L6.18247 22.3026ZM6.1979 20.3729L6.69771 20.3865L6.70653 20.062L6.41371 19.9219L6.1979 20.3729ZM2.45207 16.5859H2.95207V16.5693L2.95097 16.5527L2.45207 16.5859ZM2.48365 8.38569L2.98345 8.39963L2.98346 8.39929L2.48365 8.38569ZM4.32776 4.08176L4.68336 4.43326L4.32776 4.08176ZM8.95577 1.63543L8.61938 1.6528L8.67096 2.65147L9.00735 2.6341L8.95577 1.63543ZM15.0192 8.81711C15.0822 6.92917 14.5846 5.1465 13.5553 3.82183C12.5172 2.48592 10.9585 1.64498 8.98414 1.63477L8.97897 2.63476C10.6447 2.64337 11.9148 3.34055 12.7656 4.43542C13.6252 5.54152 14.0765 7.08228 14.0198 8.78377L15.0192 8.81711ZM15.0019 10.1056L15.0195 8.80721L14.0196 8.79367L14.002 10.0921L15.0019 10.1056ZM14.4309 10.5938C14.7346 10.6374 15.0136 10.7396 15.1846 10.921C15.3282 11.0733 15.476 11.3677 15.3383 12.0018L16.3156 12.214C16.5039 11.347 16.3382 10.6869 15.9123 10.2351C15.5139 9.81232 14.9674 9.66053 14.573 9.60392L14.4309 10.5938ZM15.3383 12.0018C15.2439 12.4367 15.0843 12.6849 14.929 12.8302C14.7738 12.9754 14.5878 13.0509 14.3839 13.0801L14.5259 14.07C14.8904 14.0177 15.2792 13.8721 15.6123 13.5603C15.9452 13.2487 16.1874 12.804 16.3156 12.214L15.3383 12.0018ZM14.8403 22.0452L14.9548 13.5818L13.9549 13.5683L13.8403 22.0316L14.8403 22.0452ZM10.3707 23.7675C11.8743 23.7091 13.3356 23.2588 14.606 22.462L14.0746 21.6148C12.953 22.3184 11.6615 22.7166 10.3319 22.7682L10.3707 23.7675ZM6.04473 22.7949C7.37455 23.4905 8.86723 23.8259 10.3707 23.7675L10.3319 22.7682C9.00227 22.8199 7.68284 22.5232 6.50823 21.9088L6.04473 22.7949ZM5.95056 22.7456L6.04457 22.7948L6.50839 21.9089L6.41438 21.8597L5.95056 22.7456ZM6.1979 20.3729C5.69808 20.3593 5.69808 20.3593 5.69808 20.3594C5.69808 20.3594 5.69808 20.3594 5.69808 20.3594C5.69808 20.3594 5.69807 20.3595 5.69807 20.3596C5.69807 20.3597 5.69806 20.3599 5.69806 20.3602C5.69804 20.3607 5.69802 20.3614 5.698 20.3623C5.69795 20.3642 5.69788 20.3669 5.69778 20.3705C5.6976 20.3777 5.69733 20.3883 5.69699 20.4021C5.69632 20.4297 5.69537 20.4701 5.69426 20.5216C5.69204 20.6246 5.6892 20.7723 5.68665 20.9517C5.68157 21.3104 5.67767 21.7969 5.68249 22.3073L6.68245 22.2979C6.67772 21.7978 6.68154 21.3196 6.68655 20.9659C6.68906 20.7892 6.69186 20.644 6.69403 20.5431C6.69511 20.4926 6.69604 20.4533 6.69669 20.4266C6.69702 20.4133 6.69727 20.4032 6.69745 20.3964C6.69754 20.393 6.6976 20.3905 6.69765 20.3888C6.69767 20.388 6.69769 20.3874 6.6977 20.387C6.6977 20.3868 6.69771 20.3867 6.69771 20.3866C6.69771 20.3865 6.69771 20.3865 6.69771 20.3865C6.69771 20.3865 6.69771 20.3865 6.69771 20.3865C6.69771 20.3865 6.69771 20.3865 6.1979 20.3729ZM1.95207 16.5859C1.95207 17.2414 2.25783 17.8345 2.64366 18.3273C3.03276 18.8243 3.53936 19.2657 4.02633 19.6284C4.51608 19.9931 5.00301 20.2907 5.36591 20.4966C5.54791 20.5998 5.70004 20.6807 5.80748 20.7362C5.86122 20.764 5.90387 20.7854 5.93357 20.8002C5.94842 20.8075 5.96004 20.8132 5.9682 20.8172C5.97228 20.8192 5.97549 20.8208 5.97782 20.8219C5.97898 20.8224 5.97992 20.8229 5.98063 20.8232C5.98098 20.8234 5.98128 20.8235 5.98153 20.8237C5.98165 20.8237 5.98179 20.8238 5.98185 20.8238C5.98197 20.8239 5.98208 20.8239 6.1979 20.3729C6.41371 19.9219 6.41379 19.9219 6.41386 19.9219C6.41386 19.922 6.41392 19.922 6.41392 19.922C6.41394 19.922 6.41389 19.922 6.4138 19.9219C6.4136 19.9218 6.41318 19.9216 6.41254 19.9213C6.41126 19.9207 6.40911 19.9197 6.4061 19.9182C6.40009 19.9153 6.39067 19.9106 6.37809 19.9044C6.35292 19.8919 6.31508 19.8729 6.26641 19.8478C6.16899 19.7974 6.02848 19.7227 5.85931 19.6268C5.51987 19.4342 5.07034 19.1591 4.62363 18.8264C4.17415 18.4916 3.74428 18.1109 3.43104 17.7109C3.11453 17.3066 2.95207 16.9277 2.95207 16.5859H1.95207ZM1.98384 8.37175C1.89737 11.472 1.84111 14.9316 1.95316 16.619L2.95097 16.5527C2.84268 14.9221 2.89659 11.5141 2.98345 8.39963L1.98384 8.37175ZM3.97216 3.73027C2.74183 4.97498 2.03117 6.63214 1.98383 8.37209L2.98346 8.39929C3.02385 6.91507 3.63002 5.49891 4.68336 4.43326L3.97216 3.73027ZM8.61904 1.65282C6.86156 1.74477 5.20229 2.48576 3.97216 3.73027L4.68336 4.43326C5.7369 3.3674 7.16057 2.73049 8.67129 2.65145L8.61904 1.65282Z" fill="#2F2F37"/>
<path d="M9.36623 8.69928C9.56733 8.87368 8.88101 8.528 7.84619 8.69929C7.23716 8.80009 6.82978 9.22169 6.6736 9.12206C6.60395 9.07337 6.64929 8.93897 6.83917 8.78185C7.10037 8.58754 7.43088 8.44956 7.78884 8.3854C8.1468 8.32123 8.5161 8.33376 8.84998 8.4214C9.10172 8.49951 9.36623 8.69928 9.36623 8.69928Z" fill="#2F2F37"/>
<path d="M2.45408 8.69928C2.25298 8.87368 2.9393 8.528 3.97413 8.69929C4.58315 8.80009 4.99053 9.22169 5.14672 9.12206C5.21636 9.07337 5.17102 8.93897 4.98114 8.78185C4.71995 8.58754 4.38944 8.44956 4.03147 8.3854C3.67351 8.32123 3.30421 8.33376 2.97033 8.4214C2.71859 8.49951 2.45408 8.69928 2.45408 8.69928Z" fill="#2F2F37"/>
<path d="M8.25391 9.94856C8.24826 10.0755 8.1928 10.1952 8.09935 10.2822C8.00589 10.3692 7.88182 10.4167 7.75354 10.4145C7.69073 10.4162 7.62823 10.4053 7.5697 10.3827C7.51118 10.3601 7.45782 10.3261 7.41275 10.2827C7.36769 10.2394 7.33183 10.1876 7.30729 10.1303C7.28275 10.073 7.27002 10.0115 7.26985 9.94927C7.27531 9.82224 7.33069 9.70235 7.42416 9.61517C7.51764 9.52798 7.64181 9.48041 7.77022 9.48258C7.83308 9.48095 7.89565 9.4918 7.95422 9.51448C8.01279 9.53715 8.06618 9.57121 8.11126 9.61463C8.15633 9.65805 8.19217 9.70997 8.21667 9.76732C8.24117 9.82467 8.25383 9.88629 8.25391 9.94856Z" fill="#2F2F37"/>
<path d="M4.65625 9.94857C4.6506 10.0755 4.59514 10.1952 4.50169 10.2822C4.40823 10.3692 4.28416 10.4167 4.15588 10.4145C4.09307 10.4162 4.03057 10.4053 3.97205 10.3827C3.91352 10.3601 3.86016 10.3261 3.8151 10.2827C3.77003 10.2394 3.73418 10.1876 3.70963 10.1303C3.68509 10.073 3.67236 10.0115 3.67219 9.94928C3.67784 9.82232 3.73327 9.70253 3.8267 9.61539C3.92014 9.52825 4.04421 9.48061 4.17256 9.4826C4.23545 9.48087 4.29806 9.49165 4.35668 9.51429C4.41529 9.53693 4.46873 9.57098 4.51382 9.61442C4.55891 9.65787 4.59475 9.70982 4.61922 9.76721C4.64368 9.8246 4.65627 9.88627 4.65625 9.94857Z" fill="#2F2F37"/>
<path d="M6.00492 16.4082C6.00492 16.356 6.0216 16.3146 6.03756 16.2895C6.05216 16.2665 6.06376 16.2601 6.05924 16.2631C6.04812 16.2705 6.00396 16.2914 5.93019 16.2914V17.2914C6.17385 17.2914 6.41705 17.2264 6.61394 17.0952C6.80733 16.9662 7.00492 16.7332 7.00492 16.4082H6.00492ZM5.93019 16.2914C5.85643 16.2914 5.81227 16.2705 5.80115 16.2631C5.79663 16.2601 5.80823 16.2665 5.82283 16.2895C5.83879 16.3146 5.85547 16.356 5.85547 16.4082H4.85547C4.85547 16.7332 5.05306 16.9662 5.24645 17.0952C5.44334 17.2264 5.68654 17.2914 5.93019 17.2914V16.2914Z" fill="#2F2F37"/>
<path d="M5.22567 13.9173L5.37812 13.7191H5.37812L5.22567 13.9173ZM6.31042 14.045L6.46042 13.845L6.32328 13.7421L6.17792 13.833L6.31042 14.045ZM5.678 10.2624C5.58492 11.816 5.21523 12.5282 4.97854 12.9278C4.92091 13.0251 4.85697 13.1265 4.81297 13.2074C4.76804 13.29 4.72057 13.3908 4.70949 13.5037C4.68327 13.7707 4.86439 13.9547 5.07322 14.1154L5.37812 13.7191C5.28103 13.6444 5.23613 13.5968 5.21616 13.5675C5.20754 13.5549 5.20637 13.5496 5.20664 13.5506C5.20713 13.5524 5.20696 13.554 5.2071 13.5526C5.20797 13.5437 5.21434 13.5159 5.25219 13.4463C5.29096 13.375 5.33871 13.3008 5.40874 13.1826C5.68265 12.7201 6.0789 11.9316 6.17711 10.2923L5.678 10.2624ZM5.07322 14.1154C5.61483 14.5321 6.19718 14.4106 6.44291 14.257L6.17792 13.833C6.08304 13.8923 5.73093 13.9906 5.37812 13.7191L5.07322 14.1154ZM6.16042 14.245C6.2597 14.3195 6.44192 14.4269 6.6356 14.4322C6.74278 14.4351 6.86797 14.4064 6.97055 14.3083C7.06921 14.2139 7.11619 14.0845 7.13321 13.9483L6.63707 13.8863C6.62855 13.9544 6.61221 13.9591 6.62492 13.947C6.64156 13.931 6.65818 13.9326 6.64936 13.9324C6.6359 13.932 6.6078 13.9265 6.56714 13.9083C6.52836 13.8909 6.49022 13.8673 6.46042 13.845L6.16042 14.245Z" fill="#2F2F37"/>
<path d="M1.58191 7.27406L1.83069 6.49491C1.92895 6.18719 1.69934 5.87285 1.37632 5.87285C0.973794 5.87285 0.75226 5.40499 1.00734 5.09361L2.96069 2.70912C3.0764 2.56788 3.04186 2.35716 2.88713 2.26024C2.66087 2.11851 2.71515 1.77465 2.97407 1.70951L5.92147 0.968011C6.04691 0.936452 6.10256 0.789586 6.02951 0.682829C5.93914 0.55075 6.04685 0.373816 6.20568 0.393433L10.014 0.863796C10.1823 0.884593 10.3309 0.753246 10.3309 0.583586C10.3309 0.359493 10.5794 0.224713 10.7673 0.346952L14.0973 2.51428C14.2577 2.61868 14.4734 2.5401 14.5291 2.35699C14.6163 2.07044 15.0288 2.09153 15.0863 2.38547L15.5378 4.69527C15.5958 4.99219 15.8034 5.23795 16.0864 5.34492L16.192 5.38485C16.8475 5.63263 17.0953 6.43074 16.6953 7.00618L14.4729 10.2036C14.4365 10.2559 14.4104 10.3146 14.3958 10.3766L13.6669 13.4725C13.6296 13.6311 13.3961 13.604 13.3961 13.4411C13.3961 13.3076 13.2248 13.2527 13.1472 13.3613L12.8214 13.8177C12.6423 14.0686 12.2467 13.9419 12.2467 13.6336V11.3262C12.2467 11.1112 11.9586 11.04 11.8585 11.2303C11.7503 11.4358 11.4378 11.333 11.4727 11.1034L11.7984 8.96076C11.8597 8.55769 11.4909 8.22217 11.0954 8.32126L10.3851 8.49921C10.0753 8.57685 9.79655 8.292 9.88087 7.9839C9.96654 7.67088 9.67805 7.38405 9.36554 7.47151L7.64146 7.95403C7.42148 8.0156 7.23194 7.78847 7.33188 7.58305C7.43108 7.37917 7.24495 7.15301 7.0258 7.21113L4.10355 7.9861C3.92338 8.03388 3.77361 7.84273 3.86311 7.67922C3.96397 7.49496 3.76437 7.2919 3.5784 7.38958L2.43521 7.99003C1.95858 8.24038 1.41816 7.78692 1.58191 7.27406Z" fill="#2F2F37"/>
<path d="M14.9387 13.8195C15.4463 13.602 15.6814 13.0141 15.4639 12.5065C15.2463 11.9988 14.6584 11.7637 14.1508 11.9812L14.9387 13.8195ZM14.5447 14.1776L14.6442 13.1825L14.6442 13.1825L14.5447 14.1776ZM15.962 13.2326C15.828 12.6968 15.2851 12.371 14.7493 12.505C14.2135 12.6389 13.8877 13.1819 14.0217 13.7177L15.962 13.2326ZM14.1508 11.9812C13.8028 12.1304 13.5624 12.3935 13.4132 12.6199C13.2578 12.8559 13.1415 13.1415 13.0993 13.4437C13.0581 13.7385 13.0768 14.1455 13.3215 14.5199C13.5889 14.9287 14.014 15.1295 14.4453 15.1726L14.6442 13.1825C14.6595 13.184 14.7162 13.1924 14.7907 13.2337C14.8688 13.2769 14.9414 13.3427 14.9955 13.4254C15.0985 13.583 15.0813 13.7115 15.08 13.7205C15.0777 13.7369 15.0772 13.7296 15.0835 13.7201C15.096 13.701 15.0631 13.7662 14.9387 13.8195L14.1508 11.9812ZM14.4452 15.1726C14.7241 15.2005 15.2134 15.1605 15.6034 14.7804C16.0547 14.3408 16.0884 13.7383 15.962 13.2326L14.0217 13.7177C14.0355 13.773 14.0183 13.7443 14.0338 13.6617C14.0517 13.5666 14.1047 13.4483 14.2077 13.348C14.3029 13.2552 14.4032 13.2141 14.4693 13.1965C14.5327 13.1797 14.5901 13.1771 14.6442 13.1825L14.4452 15.1726Z" fill="#2F2F37"/>
</svg>
